<?xml version="1.0" encoding="utf-8"?>
<?xml-stylesheet type="text/xsl" href="rss1.xsl"?>
<rss version="2.0" xmlns:atom="http://www.w3.org/2005/Atom" xmlns:content="http://purl.org/rss/1.0/modules/content/" xmlns:dc="http://purl.org/dc/elements/1.1/" xmlns:media="http://search.yahoo.com/mrss/">
<channel>
 <title>Getty</title>
 <link>http://www.gettyimg.com/</link>
 <atom:link href="http://www.gettyimg.com/" rel="self" type="application/rss+xml" />

 
                <item>
                <title><![CDATA[【UPSCALED】Owl City - Fireflies [4K AI Upscale | HEVC 10-bit | PCM 16-bit 48 kHz | TrueHD 24-bit 96 kHz | DD+ Dolby Atmos]]]></title>
                <link><![CDATA[https://sharemania.us/threads/owl-city-fireflies-4k-ai-upscale-hevc-10-bit-pcm-16-bit-48-khz-truehd-24-bit-96-khz-dd-dolby-atmos.236442/]]></link>
                <description><![CDATA[<article>
<blockquote class="messageText SelectQuoteContainer ugc baseHtml">
<b><img src="https://images2.imgbox.com/b5/fc/jcYVchFz_o.jpg" class="bbCodeImage LbImage" alt="[​IMG]" data-url="https://images2.imgbox.com/b5/fc/jcYVchFz_o.jpg" style=""> <br>
<br>
Genre: <span style="color: rgb(0, 89, 179)">Electronic, Pop</span><br>
Style: <span style="color: rgb(0, 89, 179)">Synth-pop</span><br>
Year: <span style="color: rgb(0, 89, 179)">2009</span><br>
Video Source: </b><span style="color: rgb(0, 89, 179)"><b>WebMaster, 720p, thanks </b><b>meloman67</b></span><br>
<b><b>Audio Source: <span style="color: #0059b3">Blu-ray, DVD, Tidal (thanks BbbDdd345) and Apple Music (thanks Yennefer)</span></b></b><br>
<br>
"<b>Fireflies</b>" is the debut single from American electronica project Owl City's album <i>Ocean Eyes</i>. Frontman Adam Young wrote how he enjoyed the fireflies in his hometown of Owatonna, Minnesota, and the rest of the track about seeing fireflies while he was awake with insomnia. The song is built around a "bleepy" synthline and includes lyrics about insomnia, fireflies and summer.<br>
<br>
The song topped the <i>Billboard</i> Hot 100 for two non-consecutive weeks. Internationally, the song also topped the charts in Australia, Belgium, Denmark, Finland, the Netherlands, Norway, Ireland, Sweden and the United Kingdom. "Fireflies" was Owl City's only top forty hit in the United States until three years later when "Good Time", a duet with Canadian singer Carly Rae Jepsen, charted at No. 8. It has been covered by Christina Grimmie, Cheryl Cole and others.<br>
<br>
"Fireflies" is featured in the video game <i>Disney Sing It: Party Hits</i>, and was used in the promotional video for <i>EyePet</i>. It is available as downloadable content for <i>Guitar Hero 5</i>, <i>Guitar Hero: Warriors of Rock</i> and <i>Rock Band 3</i>. The song was also released as a free download on the game <i>Tap Tap Revenge 3</i> by Tapulous.<br>
<br>
"Fireflies" is centered on Young's struggle with insomnia; he first developed the song "awake in the early hours of the morning" to occupy his mind. It was also inspired by a camping trip he took up to a "totally rustic and kind of remote lake in northern Minnesota"; he tried to emulate the experience of seeing a meteor shower that gave him "a cool idea of shooting stars being fireflies." Young was living with his parents, and recorded most of the song in their unfinished basement.<br>
<br>
The music video for "Fireflies" premiered on July 21, 2009 and was directed by Steve Hoover. It features Adam Young playing the song on a Lowrey spinet organ in a toy-filled bedroom, where most of the toys (including Robie Sr.; a Tyrannosaurus rex; a Speak &amp; Spell; toy cars, including one based on the UK children's TV character <i>Brum</i>; and a blimp) come to life. Most of the toys are older model toys, with most of them from the 1970s and 1980s (the exceptions being a RoboSapien and a Roboraptor). There are also vintage household devices such as a black-and-white television and a record player. The music video gained rotation on VH1 and MTV.<br>
<br>
<b>Release Info</b><br>
The video track is upscaled from 4K with Topaz Video AI and encoded to HEVC 10-bit.<br>
The default track is lossless, ripped from the promo and synced with Adobe Audition.<br>
The Karaoke Mix is lossless (ALAC converted to PCM), synced with Adobe Audition.<br>
The Instrumental and Atmos tracks are lossy and both are synced by muxing.<br>
The TrueHD and AC-3 tracks are ripped from Blu-ray and synced by muxing.<br>
The timed lyrics are synced &amp; edited. Enable the subtitles to see the lyrics.<br>
<br>
<b><span style="color: rgb(255, 0, 0)">Note:</span> This release contains 6 audio tracks:</b><br>
Track #1: Promo Version - PCM 16-bit 48 kHz<br>
Track #2: Karaoke Mix - PCM 16-bit 44.1 kHz<br>
Track #3: Instrumental - AAC 16-bit 48 kHz<br>
Track #4: 7.1 Mix - TrueHD 24-bit 96 kHz<br>
Track #5: Atmos Mix - DD+ 16-bit 48 kHz<br>
Track #6: 5.1 Mix - AC-3 16-bit 48 kHz<br>
<br>
<div class="ToggleTriggerAnchor bbCodeSpoilerContainer">
<button type="button" class="button bbCodeSpoilerButton ToggleTrigger Tooltip JsOnly" data-target="> .SpoilerTarget"><span>Spoiler: <span class="SpoilerTitle">Media Info</span></span></button>
<div class="SpoilerTarget bbCodeSpoilerText">
<div class="bbCodeBlock bbCodeCode">
<div class="type">Code:</div>
<pre>General
Unique ID                      : 276543661594288758146762016066563461762 (0xD00C5F337E94F805EDE5F1DE956FD282)
Complete name                  : Owl City - Fireflies.mkv
Format                         : Matroska
Format version                 : Version 4 / Version 2
File size                      : 786 MiB
Duration                       : 4 min 4 s
Overall bit rate mode          : Variable
Overall bit rate               : 27.0 Mb/s
Frame rate                     : 23.976 FPS
Encoded date                   : 2024-01-25 14:00:19 UTC
Writing application            : mkvmerge v82.0 ('I'm The President') 64-bit
Writing library                : libebml v1.4.5 + libmatroska v1.7.1

Video
ID                             : 1
Format                         : HEVC
Format/Info                    : High Efficiency Video Coding
Format profile                 : Main 10@L5@Main
Codec ID                       : V_MPEGH/ISO/HEVC
Duration                       : 3 min 53 s
Bit rate                       : 18.9 Mb/s
Width                          : 3 840 pixels
Height                         : 2 160 pixels
Display aspect ratio           : 16:9
Frame rate mode                : Constant
Frame rate                     : 23.976 (23976/1000) FPS
Color space                    : YUV
Chroma subsampling             : 4:2:0
Bit depth                      : 10 bits
Bits/(Pixel*Frame)             : 0.095
Stream size                    : 525 MiB (67%)
Language                       : English
Default                        : Yes
Forced                         : No
Color range                    : Limited
Color primaries                : BT.709
Transfer characteristics       : BT.709
Matrix coefficients            : BT.709

Audio #1
ID                             : 2
Format                         : PCM
Format settings                : Little / Signed
Codec ID                       : A_PCM/INT/LIT
Duration                       : 3 min 53 s
Bit rate mode                  : Constant
Bit rate                       : 1 536 kb/s
Channel(s)                     : 2 channels
Sampling rate                  : 48.0 kHz
Frame rate                     : 25.004 FPS (1920 SPF)
Bit depth                      : 16 bits
Stream size                    : 42.7 MiB (5%)
Title                          : Lossless 16-bit 48 kHz
Language                       : English
Default                        : Yes
Forced                         : No

Audio #2
ID                             : 3
Format                         : PCM
Format settings                : Little / Signed
Codec ID                       : A_PCM/INT/LIT
Duration                       : 3 min 53 s
Bit rate mode                  : Constant
Bit rate                       : 1 411.2 kb/s
Channel(s)                     : 2 channels
Sampling rate                  : 44.1 kHz
Frame rate                     : 25.004 FPS (1764 SPF)
Bit depth                      : 16 bits
Stream size                    : 39.2 MiB (5%)
Title                          : Karaoke Mix
Language                       : English
Default                        : Yes
Forced                         : No

Audio #3
ID                             : 4
Format                         : AAC LC
Format/Info                    : Advanced Audio Codec Low Complexity
Codec ID                       : A_AAC-2
Duration                       : 4 min 0 s
Bit rate                       : 271 kb/s
Channel(s)                     : 2 channels
Channel layout                 : L R
Sampling rate                  : 48.0 kHz
Frame rate                     : 46.875 FPS (1024 SPF)
Compression mode               : Lossy
Stream size                    : 7.76 MiB (1%)
Title                          : Instrumental
Language                       : English
Default                        : No
Forced                         : No

Audio #4
ID                             : 5
Format                         : MLP FBA
Format/Info                    : Meridian Lossless Packing FBA
Commercial name                : Dolby TrueHD
Codec ID                       : A_TRUEHD
Duration                       : 4 min 4 s
Bit rate mode                  : Variable
Bit rate                       : 4 460 kb/s
Maximum bit rate               : 5 844 kb/s
Channel(s)                     : 8 channels
Channel layout                 : L R C LFE Ls Rs Lb Rb
Sampling rate                  : 96.0 kHz
Frame rate                     : 1 200.000 FPS (80 SPF)
Compression mode               : Lossless
Delay relative to video        : 150 ms
Stream size                    : 130 MiB (17%)
Title                          : 7.1 Mix Dolby TrueHD
Language                       : English
Default                        : No
Forced                         : No

Audio #5
ID                             : 6
Format                         : E-AC-3
Format/Info                    : Enhanced AC-3
Codec ID                       : A_EAC3
Duration                       : 3 min 48 s
Bit rate                       : 768 kb/s
Channel(s)                     : 6 channels
Sampling rate                  : 48.0 kHz
Frame rate                     : 31.250 FPS (1536 SPF)
Compression mode               : Lossy
Stream size                    : 20.9 MiB (3%)
Title                          : Dolby Digital Plus with Dolby Atmos
Language                       : English
Default                        : No
Forced                         : No

Audio #6
ID                             : 7
Format                         : AC-3
Format/Info                    : Audio Coding 3
Commercial name                : Dolby Digital
Codec ID                       : A_AC3
Duration                       : 4 min 4 s
Bit rate mode                  : Constant
Bit rate                       : 640 kb/s
Channel(s)                     : 6 channels
Channel layout                 : L R C LFE Ls Rs
Sampling rate                  : 48.0 kHz
Frame rate                     : 31.250 FPS (1536 SPF)
Compression mode               : Lossy
Delay relative to video        : 130 ms
Stream size                    : 18.6 MiB (2%)
Title                          : 5.1 Mix
Language                       : English
Service kind                   : Complete Main
Default                        : No
Forced                         : No

Text
ID                             : 8
Format                         : UTF-8
Codec ID                       : S_TEXT/UTF8
Codec ID/Info                  : UTF-8 Plain Text
Duration                       : 3 min 14 s
Bit rate                       : 71 b/s
Frame rate                     : 0.232 FPS
Count of elements              : 45
Stream size                    : 1.69 KiB (0%)
Title                          : Lyrics
Language                       : English
Default                        : No
Forced                         : No
</pre>
</div></div>
</div><br>
<b>Note to the peeps @ RuTracker: Give credit if you post the work of someone else!</b><br>
- Hurby4 aka ADHDerby<br>
<br>
<div class="bbCodeBlock bbCodeVfcHH HiddenContent">
<div class="attribution type">Hidden Content:</div>
<blockquote>You must reply before you can see the hidden data contained here.</blockquote>
</div>
<div class="messageTextEndMarker">&nbsp;</div>
</blockquote>
</article>]]></description>
                <author><![CDATA[ADHDerby]]></author>
                </item>

                
                <item>
                <title><![CDATA[【Singles (lossless)】FLAC - Cheat Codes - Head Up (feat. Birdy) | Qobuz Hi-Res 24bit / 48.0kHz]]></title>
                <link><![CDATA[https://sharemania.us/threads/cheat-codes-head-up-feat-birdy-qobuz-hi-res-24bit-48-0khz.236443/]]></link>
                <description><![CDATA[<article>
<blockquote class="messageText SelectQuoteContainer ugc baseHtml">
<div style="text-align: center"><img src="https://static.qobuz.com/images/covers/ga/fz/ln46tb9kqfzga_600.jpg" class="bbCodeImage LbImage" alt="[​IMG]" data-url="https://static.qobuz.com/images/covers/ga/fz/ln46tb9kqfzga_600.jpg" style=""><br>
<div class="bbCodeBlock bbCodeVfcHH HiddenContent">
<div class="attribution type">Hidden Content:</div>
<blockquote>You must reply before you can see the hidden data contained here.</blockquote>
</div></div>
<div class="messageTextEndMarker">&nbsp;</div>
</blockquote>
</article>]]></description>
                <author><![CDATA[Yennefer]]></author>
                </item>

                
                <item>
                <title><![CDATA[【Singles (lossless)】FLAC - Coi Leray &amp; Mike Will Made-It - Wanna Come Thru | Qobuz Hi-Res 24bit / 44.1kHz]]></title>
                <link><![CDATA[https://sharemania.us/threads/coi-leray-mike-will-made-it-wanna-come-thru-qobuz-hi-res-24bit-44-1khz.236441/]]></link>
                <description><![CDATA[<article>
<blockquote class="messageText SelectQuoteContainer ugc baseHtml">
<div style="text-align: center"><img src="https://static.qobuz.com/images/covers/lc/01/tq73y7wfs01lc_600.jpg" class="bbCodeImage LbImage" alt="[​IMG]" data-url="https://static.qobuz.com/images/covers/lc/01/tq73y7wfs01lc_600.jpg" style=""><br>
<div class="bbCodeBlock bbCodeVfcHH HiddenContent">
<div class="attribution type">Hidden Content:</div>
<blockquote>You must reply before you can see the hidden data contained here.</blockquote>
</div></div>
<div class="messageTextEndMarker">&nbsp;</div>
</blockquote>
</article>]]></description>
                <author><![CDATA[Yennefer]]></author>
                </item>

                </channel></rss>